<svg width="204" height="31" viewBox="0 0 204 31" fill="none" xmlns="http://www.w3.org/2000/svg">
<path d="M9.768 16.784C9.768 15.68 9.52 14.8 9.024 14.144C8.528 13.472 7.792 13.136 6.816 13.136C6.496 13.136 6.2 13.152 5.928 13.184C5.656 13.2 5.432 13.224 5.256 13.256V19.712C5.48 19.856 5.768 19.976 6.12 20.072C6.488 20.168 6.856 20.216 7.224 20.216C8.92 20.216 9.768 19.072 9.768 16.784ZM13.416 16.688C13.416 17.664 13.296 18.552 13.056 19.352C12.816 20.152 12.464 20.84 12 21.416C11.536 21.992 10.96 22.44 10.272 22.76C9.584 23.08 8.792 23.24 7.896 23.24C7.4 23.24 6.936 23.192 6.504 23.096C6.072 23 5.656 22.864 5.256 22.688V27.44H1.68V10.808C2 10.712 2.368 10.624 2.784 10.544C3.2 10.448 3.632 10.368 4.08 10.304C4.544 10.24 5.008 10.192 5.472 10.16C5.952 10.112 6.408 10.088 6.84 10.088C7.88 10.088 8.808 10.248 9.624 10.568C10.44 10.872 11.128 11.312 11.688 11.888C12.248 12.448 12.672 13.136 12.96 13.952C13.264 14.768 13.416 15.68 13.416 16.688ZM19.7404 14.936C20.0924 14.552 20.4524 14.152 20.8204 13.736C21.2044 13.32 21.5724 12.912 21.9244 12.512C22.2764 12.096 22.6044 11.704 22.9084 11.336C23.2284 10.968 23.5004 10.648 23.7244 10.376H27.9724C27.1244 11.352 26.2924 12.288 25.4764 13.184C24.6764 14.064 23.7964 14.976 22.8364 15.92C23.3164 16.352 23.8124 16.872 24.3244 17.48C24.8364 18.072 25.3324 18.688 25.8124 19.328C26.2924 19.968 26.7324 20.608 27.1324 21.248C27.5324 21.888 27.8684 22.472 28.1404 23H24.0364C23.7804 22.584 23.4844 22.128 23.1484 21.632C22.8284 21.12 22.4844 20.616 22.1164 20.12C21.7484 19.608 21.3564 19.12 20.9404 18.656C20.5404 18.192 20.1404 17.8 19.7404 17.48V23H16.1644V4.952L19.7404 4.376V14.936ZM33.6868 20.432C34.3428 20.432 34.8068 20.368 35.0788 20.24C35.3508 20.112 35.4868 19.864 35.4868 19.496C35.4868 19.208 35.3108 18.96 34.9588 18.752C34.6068 18.528 34.0708 18.28 33.3508 18.008C32.7908 17.8 32.2788 17.584 31.8148 17.36C31.3668 17.136 30.9828 16.872 30.6628 16.568C30.3428 16.248 30.0948 15.872 29.9188 15.44C29.7428 15.008 29.6548 14.488 29.6548 13.88C29.6548 12.696 30.0948 11.76 30.9748 11.072C31.8548 10.384 33.0628 10.04 34.5988 10.04C35.3668 10.04 36.1028 10.112 36.8068 10.256C37.5108 10.384 38.0708 10.528 38.4868 10.688L37.8628 13.472C37.4468 13.328 36.9908 13.2 36.4948 13.088C36.0148 12.976 35.4708 12.92 34.8628 12.92C33.7428 12.92 33.1828 13.232 33.1828 13.856C33.1828 14 33.2068 14.128 33.2548 14.24C33.3028 14.352 33.3988 14.464 33.5428 14.576C33.6868 14.672 33.8788 14.784 34.1188 14.912C34.3748 15.024 34.6948 15.152 35.0788 15.296C35.8628 15.584 36.5108 15.872 37.0228 16.16C37.5348 16.432 37.9348 16.736 38.2228 17.072C38.5268 17.392 38.7348 17.752 38.8468 18.152C38.9748 18.552 39.0388 19.016 39.0388 19.544C39.0388 20.792 38.5668 21.736 37.6228 22.376C36.6948 23.016 35.3748 23.336 33.6628 23.336C32.5428 23.336 31.6068 23.24 30.8548 23.048C30.1188 22.856 29.6068 22.696 29.3188 22.568L29.9188 19.664C30.5268 19.904 31.1508 20.096 31.7908 20.24C32.4308 20.368 33.0628 20.432 33.6868 20.432ZM52.4873 22.568C51.8793 22.744 51.0953 22.904 50.1353 23.048C49.1753 23.208 48.1673 23.288 47.1113 23.288C46.0393 23.288 45.1433 23.144 44.4233 22.856C43.7193 22.568 43.1593 22.168 42.7433 21.656C42.3273 21.128 42.0313 20.504 41.8553 19.784C41.6793 19.064 41.5913 18.272 41.5913 17.408V10.376H45.1673V16.976C45.1673 18.128 45.3193 18.96 45.6233 19.472C45.9273 19.984 46.4953 20.24 47.3273 20.24C47.5833 20.24 47.8553 20.232 48.1433 20.216C48.4313 20.184 48.6873 20.152 48.9113 20.12V10.376H52.4873V22.568ZM55.2441 16.688C55.2441 15.776 55.3881 14.92 55.6761 14.12C55.9801 13.304 56.4121 12.6 56.9721 12.008C57.5321 11.4 58.2121 10.92 59.0121 10.568C59.8121 10.216 60.7241 10.04 61.7481 10.04C62.4201 10.04 63.0361 10.104 63.5961 10.232C64.1561 10.344 64.7001 10.512 65.2281 10.736L64.4841 13.592C64.1481 13.464 63.7801 13.352 63.3801 13.256C62.9801 13.16 62.5321 13.112 62.0361 13.112C60.9801 13.112 60.1881 13.44 59.6601 14.096C59.1481 14.752 58.8921 15.616 58.8921 16.688C58.8921 17.824 59.1321 18.704 59.6121 19.328C60.1081 19.952 60.9641 20.264 62.1801 20.264C62.6121 20.264 63.0761 20.224 63.5721 20.144C64.0681 20.064 64.5241 19.936 64.9401 19.76L65.4441 22.688C65.0281 22.864 64.5081 23.016 63.8841 23.144C63.2601 23.272 62.5721 23.336 61.8201 23.336C60.6681 23.336 59.6761 23.168 58.8441 22.832C58.0121 22.48 57.3241 22.008 56.7801 21.416C56.2521 20.824 55.8601 20.128 55.6041 19.328C55.3641 18.512 55.2441 17.632 55.2441 16.688ZM66.6347 16.688C66.6347 15.776 66.7787 14.92 67.0667 14.12C67.3707 13.304 67.8027 12.6 68.3627 12.008C68.9227 11.4 69.6027 10.92 70.4027 10.568C71.2027 10.216 72.1147 10.04 73.1387 10.04C73.8107 10.04 74.4267 10.104 74.9867 10.232C75.5467 10.344 76.0907 10.512 76.6187 10.736L75.8747 13.592C75.5387 13.464 75.1707 13.352 74.7707 13.256C74.3707 13.16 73.9227 13.112 73.4267 13.112C72.3707 13.112 71.5787 13.44 71.0507 14.096C70.5387 14.752 70.2827 15.616 70.2827 16.688C70.2827 17.824 70.5227 18.704 71.0027 19.328C71.4987 19.952 72.3547 20.264 73.5707 20.264C74.0027 20.264 74.4667 20.224 74.9627 20.144C75.4587 20.064 75.9147 19.936 76.3307 19.76L76.8347 22.688C76.4187 22.864 75.8987 23.016 75.2747 23.144C74.6507 23.272 73.9627 23.336 73.2107 23.336C72.0587 23.336 71.0667 23.168 70.2347 22.832C69.4027 22.48 68.7147 22.008 68.1707 21.416C67.6427 20.824 67.2507 20.128 66.9947 19.328C66.7547 18.512 66.6347 17.632 66.6347 16.688ZM78.0253 16.784C78.0253 15.664 78.1933 14.688 78.5293 13.856C78.8813 13.008 79.3373 12.304 79.8973 11.744C80.4573 11.184 81.0973 10.76 81.8173 10.472C82.5533 10.184 83.3053 10.04 84.0733 10.04C85.8653 10.04 87.2813 10.592 88.3213 11.696C89.3613 12.784 89.8813 14.392 89.8813 16.52C89.8813 16.728 89.8733 16.96 89.8573 17.216C89.8413 17.456 89.8253 17.672 89.8093 17.864H81.6973C81.7773 18.6 82.1213 19.184 82.7293 19.616C83.3373 20.048 84.1533 20.264 85.1773 20.264C85.8333 20.264 86.4733 20.208 87.0973 20.096C87.7373 19.968 88.2573 19.816 88.6573 19.64L89.1373 22.544C88.9453 22.64 88.6893 22.736 88.3693 22.832C88.0493 22.928 87.6893 23.008 87.2893 23.072C86.9053 23.152 86.4893 23.216 86.0413 23.264C85.5933 23.312 85.1453 23.336 84.6973 23.336C83.5613 23.336 82.5693 23.168 81.7213 22.832C80.8893 22.496 80.1933 22.04 79.6333 21.464C79.0893 20.872 78.6813 20.176 78.4093 19.376C78.1533 18.576 78.0253 17.712 78.0253 16.784ZM86.4253 15.416C86.4093 15.112 86.3533 14.816 86.2573 14.528C86.1773 14.24 86.0413 13.984 85.8493 13.76C85.6733 13.536 85.4413 13.352 85.1533 13.208C84.8813 13.064 84.5373 12.992 84.1213 12.992C83.7213 12.992 83.3773 13.064 83.0893 13.208C82.8013 13.336 82.5613 13.512 82.3693 13.736C82.1773 13.96 82.0253 14.224 81.9133 14.528C81.8173 14.816 81.7453 15.112 81.6973 15.416H86.4253ZM96.2649 20.432C96.9209 20.432 97.3849 20.368 97.6569 20.24C97.9289 20.112 98.0649 19.864 98.0649 19.496C98.0649 19.208 97.8889 18.96 97.5369 18.752C97.1849 18.528 96.6489 18.28 95.9289 18.008C95.3689 17.8 94.8569 17.584 94.3929 17.36C93.9449 17.136 93.5609 16.872 93.2409 16.568C92.9209 16.248 92.6729 15.872 92.4969 15.44C92.3209 15.008 92.2329 14.488 92.2329 13.88C92.2329 12.696 92.6729 11.76 93.5529 11.072C94.4329 10.384 95.6409 10.04 97.1769 10.04C97.9449 10.04 98.6809 10.112 99.3849 10.256C100.089 10.384 100.649 10.528 101.065 10.688L100.441 13.472C100.025 13.328 99.5689 13.2 99.0729 13.088C98.5929 12.976 98.0489 12.92 97.4409 12.92C96.3209 12.92 95.7609 13.232 95.7609 13.856C95.7609 14 95.7849 14.128 95.8329 14.24C95.8809 14.352 95.9769 14.464 96.1209 14.576C96.2649 14.672 96.4569 14.784 96.6969 14.912C96.9529 15.024 97.2729 15.152 97.6569 15.296C98.4409 15.584 99.0889 15.872 99.6009 16.16C100.113 16.432 100.513 16.736 100.801 17.072C101.105 17.392 101.313 17.752 101.425 18.152C101.553 18.552 101.617 19.016 101.617 19.544C101.617 20.792 101.145 21.736 100.201 22.376C99.2729 23.016 97.9529 23.336 96.2409 23.336C95.1209 23.336 94.1849 23.24 93.4329 23.048C92.6969 22.856 92.1849 22.696 91.8969 22.568L92.4969 19.664C93.1049 19.904 93.7289 20.096 94.3689 20.24C95.0089 20.368 95.6409 20.432 96.2649 20.432ZM107.913 20.432C108.569 20.432 109.033 20.368 109.305 20.24C109.577 20.112 109.713 19.864 109.713 19.496C109.713 19.208 109.537 18.96 109.185 18.752C108.833 18.528 108.297 18.28 107.577 18.008C107.017 17.8 106.505 17.584 106.041 17.36C105.593 17.136 105.209 16.872 104.889 16.568C104.569 16.248 104.321 15.872 104.145 15.44C103.969 15.008 103.881 14.488 103.881 13.88C103.881 12.696 104.321 11.76 105.201 11.072C106.081 10.384 107.289 10.04 108.825 10.04C109.593 10.04 110.329 10.112 111.033 10.256C111.737 10.384 112.297 10.528 112.713 10.688L112.089 13.472C111.673 13.328 111.217 13.2 110.721 13.088C110.241 12.976 109.697 12.92 109.089 12.92C107.969 12.92 107.409 13.232 107.409 13.856C107.409 14 107.433 14.128 107.481 14.24C107.529 14.352 107.625 14.464 107.769 14.576C107.913 14.672 108.105 14.784 108.345 14.912C108.601 15.024 108.921 15.152 109.305 15.296C110.089 15.584 110.737 15.872 111.249 16.16C111.761 16.432 112.161 16.736 112.449 17.072C112.753 17.392 112.961 17.752 113.073 18.152C113.201 18.552 113.265 19.016 113.265 19.544C113.265 20.792 112.793 21.736 111.849 22.376C110.921 23.016 109.601 23.336 107.889 23.336C106.769 23.336 105.833 23.24 105.081 23.048C104.345 22.856 103.833 22.696 103.545 22.568L104.145 19.664C104.753 19.904 105.377 20.096 106.017 20.24C106.657 20.368 107.289 20.432 107.913 20.432ZM115.818 7.232L119.394 6.656V10.376H123.69V13.352H119.394V17.792C119.394 18.544 119.522 19.144 119.778 19.592C120.05 20.04 120.586 20.264 121.386 20.264C121.77 20.264 122.162 20.232 122.562 20.168C122.978 20.088 123.354 19.984 123.69 19.856L124.194 22.64C123.762 22.816 123.282 22.968 122.754 23.096C122.226 23.224 121.578 23.288 120.81 23.288C119.834 23.288 119.026 23.16 118.386 22.904C117.746 22.632 117.234 22.264 116.85 21.8C116.466 21.32 116.194 20.744 116.034 20.072C115.89 19.4 115.818 18.656 115.818 17.84V7.232ZM134.21 13.544C133.89 13.464 133.514 13.384 133.082 13.304C132.65 13.208 132.186 13.16 131.69 13.16C131.466 13.16 131.194 13.184 130.874 13.232C130.57 13.264 130.338 13.304 130.178 13.352V23H126.602V11.048C127.242 10.824 127.994 10.616 128.858 10.424C129.738 10.216 130.714 10.112 131.786 10.112C131.978 10.112 132.21 10.128 132.482 10.16C132.754 10.176 133.026 10.208 133.298 10.256C133.57 10.288 133.842 10.336 134.114 10.4C134.386 10.448 134.618 10.512 134.81 10.592L134.21 13.544ZM141.317 20.504C141.669 20.504 142.005 20.496 142.325 20.48C142.645 20.464 142.901 20.44 143.093 20.408V17.696C142.949 17.664 142.733 17.632 142.445 17.6C142.157 17.568 141.893 17.552 141.653 17.552C141.317 17.552 140.997 17.576 140.693 17.624C140.405 17.656 140.149 17.728 139.925 17.84C139.701 17.952 139.525 18.104 139.397 18.296C139.269 18.488 139.205 18.728 139.205 19.016C139.205 19.576 139.389 19.968 139.757 20.192C140.141 20.4 140.661 20.504 141.317 20.504ZM141.029 10.04C142.085 10.04 142.965 10.16 143.669 10.4C144.373 10.64 144.933 10.984 145.349 11.432C145.781 11.88 146.085 12.424 146.261 13.064C146.437 13.704 146.525 14.416 146.525 15.2V22.64C146.013 22.752 145.301 22.88 144.389 23.024C143.477 23.184 142.373 23.264 141.077 23.264C140.261 23.264 139.517 23.192 138.845 23.048C138.189 22.904 137.621 22.672 137.141 22.352C136.661 22.016 136.293 21.584 136.037 21.056C135.781 20.528 135.653 19.88 135.653 19.112C135.653 18.376 135.797 17.752 136.085 17.24C136.389 16.728 136.789 16.32 137.285 16.016C137.781 15.712 138.349 15.496 138.989 15.368C139.629 15.224 140.293 15.152 140.98 15.152C141.445 15.152 141.853 15.176 142.205 15.224C142.573 15.256 142.869 15.304 143.093 15.368V15.032C143.093 14.424 142.909 13.936 142.541 13.568C142.173 13.2 141.533 13.016 140.621 13.016C140.013 13.016 139.413 13.064 138.821 13.16C138.229 13.24 137.717 13.36 137.285 13.52L136.829 10.64C137.037 10.576 137.293 10.512 137.597 10.448C137.917 10.368 138.261 10.304 138.629 10.256C138.997 10.192 139.381 10.144 139.781 10.112C140.197 10.064 140.613 10.04 141.029 10.04ZM152.806 16.592C152.806 17.696 153.054 18.584 153.55 19.256C154.046 19.928 154.782 20.264 155.758 20.264C156.078 20.264 156.374 20.256 156.646 20.24C156.918 20.208 157.142 20.176 157.318 20.144V13.64C157.094 13.496 156.798 13.376 156.43 13.28C156.078 13.184 155.718 13.136 155.35 13.136C153.654 13.136 152.806 14.288 152.806 16.592ZM160.894 22.592C160.574 22.688 160.206 22.784 159.79 22.88C159.374 22.96 158.934 23.032 158.47 23.096C158.022 23.16 157.558 23.208 157.078 23.24C156.614 23.288 156.166 23.312 155.734 23.312C154.694 23.312 153.766 23.16 152.95 22.856C152.134 22.552 151.446 22.12 150.886 21.56C150.326 20.984 149.894 20.296 149.59 19.496C149.302 18.68 149.158 17.768 149.158 16.76C149.158 15.736 149.286 14.816 149.542 14C149.798 13.168 150.166 12.464 150.646 11.888C151.126 11.312 151.71 10.872 152.398 10.568C153.102 10.264 153.902 10.112 154.798 10.112C155.294 10.112 155.734 10.16 156.118 10.256C156.518 10.352 156.918 10.488 157.318 10.664V4.952L160.894 4.376V22.592ZM167.819 23H164.243V10.376H167.819V23ZM168.155 6.728C168.155 7.384 167.939 7.904 167.507 8.288C167.091 8.656 166.595 8.84 166.019 8.84C165.443 8.84 164.939 8.656 164.507 8.288C164.091 7.904 163.883 7.384 163.883 6.728C163.883 6.072 164.091 5.56 164.507 5.192C164.939 4.808 165.443 4.616 166.019 4.616C166.595 4.616 167.091 4.808 167.507 5.192C167.939 5.56 168.155 6.072 168.155 6.728ZM171.18 10.808C171.788 10.632 172.572 10.472 173.532 10.328C174.492 10.168 175.5 10.088 176.556 10.088C177.628 10.088 178.516 10.232 179.22 10.52C179.94 10.792 180.508 11.184 180.924 11.696C181.34 12.208 181.636 12.816 181.812 13.52C181.988 14.224 182.076 15.008 182.076 15.872V23H178.5V16.304C178.5 15.152 178.348 14.336 178.044 13.856C177.74 13.376 177.172 13.136 176.34 13.136C176.084 13.136 175.812 13.152 175.524 13.184C175.236 13.2 174.98 13.224 174.756 13.256V23H171.18V10.808ZM188.361 16.28C188.361 18.28 189.169 19.28 190.785 19.28C191.153 19.28 191.497 19.232 191.817 19.136C192.137 19.04 192.409 18.928 192.633 18.8V13.088C192.457 13.056 192.249 13.032 192.009 13.016C191.769 12.984 191.489 12.968 191.169 12.968C190.225 12.968 189.521 13.28 189.057 13.904C188.593 14.528 188.361 15.32 188.361 16.28ZM196.209 21.416C196.209 23.48 195.681 25.008 194.625 26C193.585 27.008 191.969 27.512 189.777 27.512C189.009 27.512 188.241 27.44 187.473 27.296C186.705 27.168 185.993 26.992 185.337 26.768L185.961 23.768C186.521 23.992 187.105 24.168 187.713 24.296C188.337 24.424 189.041 24.488 189.825 24.488C190.849 24.488 191.569 24.264 191.985 23.816C192.417 23.368 192.633 22.792 192.633 22.088V21.632C192.249 21.808 191.849 21.944 191.433 22.04C191.033 22.12 190.593 22.16 190.113 22.16C188.369 22.16 187.033 21.648 186.105 20.624C185.177 19.584 184.713 18.136 184.713 16.28C184.713 15.352 184.857 14.512 185.145 13.76C185.433 12.992 185.849 12.336 186.393 11.792C186.953 11.248 187.633 10.832 188.433 10.544C189.233 10.24 190.137 10.088 191.145 10.088C191.577 10.088 192.017 10.112 192.465 10.16C192.929 10.192 193.385 10.24 193.833 10.304C194.281 10.368 194.705 10.448 195.105 10.544C195.521 10.624 195.889 10.712 196.209 10.808V21.416ZM203.067 21.104C203.067 21.824 202.835 22.376 202.371 22.76C201.923 23.128 201.411 23.312 200.835 23.312C200.259 23.312 199.739 23.128 199.275 22.76C198.827 22.376 198.603 21.824 198.603 21.104C198.603 20.384 198.827 19.84 199.275 19.472C199.739 19.088 200.259 18.896 200.835 18.896C201.411 18.896 201.923 19.088 202.371 19.472C202.835 19.84 203.067 20.384 203.067 21.104Z" fill="#C7F702"/>
</svg>
